<svg xmlns="http://www.w3.org/2000/svg" xmlns:xlink="http://www.w3.org/1999/xlink" width="4535" zoomAndPan="magnify" viewBox="0 0 3401.25 1984.499941" height="2646" preserveAspectRatio="xMidYMid meet" version="1.0"><defs><clipPath id="31e3ca2a8d"><path d="M 821.679688 102.089844 L 2614.476562 102.089844 L 2614.476562 1854.398438 L 821.679688 1854.398438 Z M 821.679688 102.089844 " clip-rule="nonzero"/></clipPath></defs><g clip-path="url(#31e3ca2a8d)"><path fill="#000000" d="M 2464.863281 888.9375 C 2444.941406 863.824219 2430.867188 834.8125 2401.203125 814.894531 C 2411.8125 860.140625 2415.0625 903.011719 2408.78125 946.09375 C 2405.316406 970.125 2396.441406 992.425781 2384.53125 1017.324219 C 2370.457031 969.042969 2352.917969 925.742188 2323.90625 886.773438 C 2319.359375 894.566406 2321.523438 901.496094 2321.308594 907.773438 C 2320.441406 936.136719 2320.875 964.496094 2318.277344 992.859375 C 2311.996094 1060.40625 2340.144531 1116.914062 2379.117188 1170.824219 C 2363.960938 1174.722656 2347.289062 1172.558594 2330.835938 1172.339844 C 2321.523438 1172.125 2320.007812 1174.722656 2321.089844 1183.382812 C 2325.203125 1216.074219 2331.484375 1248.765625 2329.535156 1282.109375 C 2326.503906 1331.253906 2311.78125 1376.503906 2281.902344 1421.753906 C 2280.816406 1398.371094 2277.785156 1379.101562 2267.828125 1355.933594 C 2258.082031 1405.730469 2237.511719 1445.132812 2211.53125 1481.941406 C 2206.984375 1488.433594 2208.933594 1492.550781 2213.695312 1497.527344 C 2229.71875 1513.984375 2244.875 1531.519531 2263.929688 1544.941406 C 2282.984375 1558.367188 2306.800781 1554.035156 2328.019531 1559.230469 C 2387.996094 1573.519531 2439.527344 1599.71875 2470.492188 1656.226562 C 2482.398438 1677.875 2489.542969 1701.257812 2488.894531 1725.722656 C 2488.460938 1741.09375 2494.523438 1743.261719 2507.734375 1742.828125 C 2538.261719 1741.960938 2568.792969 1743.476562 2599.105469 1742.175781 C 2619.675781 1741.3125 2613.394531 1754.953125 2613.828125 1764.910156 C 2614.042969 1775.300781 2618.808594 1788.078125 2598.671875 1787.210938 C 2565.542969 1785.695312 2532.199219 1787.425781 2499.070312 1786.5625 C 2486.082031 1786.128906 2478.070312 1789.59375 2471.574219 1801.28125 C 2457.28125 1826.832031 2433.464844 1835.492188 2406.183594 1830.945312 C 2395.140625 1829.210938 2387.5625 1831.160156 2379.117188 1837.007812 C 2352.703125 1855.191406 2325.421875 1858.871094 2298.574219 1838.738281 C 2292.078125 1833.976562 2288.828125 1835.707031 2282.984375 1838.953125 C 2246.609375 1859.523438 2211.53125 1861.472656 2179.484375 1829.863281 C 2175.15625 1825.53125 2172.339844 1826.398438 2167.578125 1829.429688 C 2127.953125 1854.109375 2068.625 1835.058594 2049.355469 1798.035156 C 2045.460938 1790.242188 2040.695312 1786.5625 2030.953125 1786.5625 C 1812.699219 1786.992188 1594.445312 1786.992188 1376.40625 1786.5625 C 1367.097656 1786.5625 1362.550781 1790.023438 1357.785156 1797.601562 C 1332.453125 1837.871094 1289.800781 1850.644531 1247.792969 1830.945312 C 1241.296875 1827.914062 1237.832031 1828.347656 1231.988281 1832.675781 C 1196.046875 1858.871094 1164.867188 1859.738281 1127.625 1836.355469 C 1120.480469 1831.808594 1115.714844 1829.863281 1106.839844 1835.707031 C 1081.722656 1851.945312 1055.738281 1849.5625 1031.488281 1832.460938 C 1022.828125 1826.398438 1015.898438 1823.148438 1003.992188 1826.179688 C 980.390625 1832.242188 961.121094 1820.550781 948.5625 1801.28125 C 940.550781 1788.941406 931.671875 1786.34375 918.464844 1786.777344 C 891.398438 1787.425781 864.335938 1786.5625 837.050781 1787.210938 C 826.226562 1787.425781 821.246094 1785.261719 821.679688 1772.921875 C 822.546875 1735.25 819.515625 1743.261719 851.992188 1742.609375 C 872.996094 1742.175781 893.996094 1742.175781 915 1742.609375 C 923.445312 1742.828125 926.691406 1740.660156 926.910156 1731.351562 C 929.289062 1626.996094 1017.414062 1565.292969 1099.691406 1556.199219 C 1140.617188 1551.65625 1165.515625 1530.21875 1187.601562 1500.125 C 1192.363281 1493.632812 1189.117188 1490.601562 1186.085938 1486.269531 C 1162.484375 1453.792969 1144.945312 1418.503906 1138.234375 1378.453125 C 1137.585938 1374.554688 1137.367188 1368.925781 1132.171875 1369.359375 C 1126.542969 1369.792969 1125.890625 1375.203125 1125.890625 1380.183594 C 1125.890625 1398.371094 1125.890625 1416.773438 1125.890625 1435.390625 C 1096.011719 1415.257812 1067.863281 1348.789062 1064.832031 1298.34375 C 1061.585938 1245.519531 1073.710938 1195.503906 1088.867188 1143.113281 C 1059.203125 1147.441406 1031.488281 1155.886719 999.875 1151.773438 C 1032.355469 1113.019531 1054.65625 1070.582031 1063.101562 1022.304688 C 1071.328125 975.105469 1074.792969 927.257812 1072.410156 875.730469 C 1028.890625 909.070312 1012 956.484375 990.351562 1000.4375 C 950.941406 951.507812 943.796875 843.6875 1012 757.519531 C 976.707031 762.066406 945.53125 771.808594 917.164062 790.644531 C 907.855469 740.414062 936.003906 690.621094 999.445312 644.289062 C 968.914062 619.824219 933.835938 605.75 894.648438 594.492188 C 921.710938 568.945312 952.027344 554.65625 986.886719 551.625 C 998.144531 550.542969 1002.476562 549.027344 1000.09375 536.902344 C 989.917969 486.671875 983.855469 435.792969 981.90625 384.484375 C 978.875 298.316406 987.320312 213.445312 1018.929688 132.472656 C 1031.273438 100.863281 1038.632812 98.480469 1071.113281 105.84375 C 1146.246094 122.730469 1210.769531 161.703125 1271.179688 207.167969 C 1351.074219 267.355469 1416.246094 340.316406 1454.355469 434.496094 C 1457.386719 441.855469 1461.066406 444.238281 1468.644531 445.96875 C 1489.648438 450.300781 1511.085938 453.765625 1532.953125 468.269531 C 1511.734375 390.113281 1477.738281 324.078125 1415.816406 271.253906 C 1497.441406 278.179688 1558.503906 316.066406 1608.300781 375.605469 C 1600.507812 319.53125 1589.25 265.621094 1551.355469 217.777344 C 1589.464844 229.035156 1620.859375 245.054688 1645.109375 272.335938 C 1668.496094 298.53125 1681.917969 331.007812 1695.777344 366.296875 C 1733.453125 285.109375 1791.046875 233.796875 1880.46875 222.753906 C 1833.484375 266.488281 1810.535156 321.914062 1794.078125 387.082031 C 1847.773438 336.417969 1908.617188 317.800781 1977.6875 317.367188 C 1915.113281 349.625 1882.203125 402.886719 1863.796875 470.003906 C 1890.429688 463.289062 1912.730469 453.765625 1937.199219 453.765625 C 1945.210938 453.765625 1947.808594 447.269531 1951.054688 440.992188 C 2031.167969 275.796875 2164.980469 172.527344 2334.515625 111.90625 C 2378.035156 96.316406 2387.5625 102.8125 2401.636719 147.195312 C 2419.390625 202.835938 2427.621094 260.210938 2430 318.015625 C 2433.25 394.441406 2428.917969 470.652344 2410.515625 545.34375 C 2407.914062 555.738281 2410.515625 559.636719 2422.207031 562.015625 C 2473.523438 571.757812 2487.8125 578.902344 2511.195312 602.71875 C 2480.449219 620.6875 2451.21875 640.605469 2425.019531 664.855469 C 2411.378906 677.628906 2410.515625 684.339844 2424.15625 699.28125 C 2470.492188 750.808594 2483.699219 812.292969 2470.058594 879.84375 C 2470.058594 881.792969 2467.460938 884.390625 2464.863281 888.9375 Z M 1089.734375 1100.027344 C 1106.839844 1084.871094 1124.160156 1069.933594 1140.832031 1054.128906 C 1177.640625 1019.273438 1209.46875 978.570312 1251.042969 949.125 C 1289.800781 921.628906 1319.246094 888.503906 1341.980469 846.285156 C 1363.632812 806.234375 1413.648438 791.726562 1456.738281 804.71875 C 1504.15625 819.007812 1526.023438 854.078125 1536.851562 899.546875 C 1543.5625 927.257812 1539.664062 957.351562 1557.851562 982.898438 C 1535.550781 980.949219 1516.929688 984.414062 1497.011719 1001.953125 C 1527.324219 995.238281 1550.058594 1003.683594 1573.875 1013.425781 C 1484.019531 1026.632812 1404.773438 1060.191406 1342.414062 1127.523438 C 1279.839844 1195.074219 1243.898438 1271.933594 1256.671875 1366.328125 C 1268.578125 1327.140625 1282.4375 1289.253906 1304.523438 1254.179688 C 1326.824219 1218.886719 1355.40625 1191.390625 1393.730469 1173.421875 C 1349.558594 1227.117188 1317.082031 1285.789062 1309.285156 1355.71875 C 1301.707031 1423.269531 1326.609375 1517.015625 1360.386719 1547.972656 C 1331.585938 1442.320312 1359.953125 1338.613281 1430.753906 1291.851562 C 1430.753906 1293.148438 1431.402344 1294.664062 1430.972656 1295.53125 C 1423.609375 1307.003906 1414.300781 1321.945312 1417.761719 1332.335938 C 1422.742188 1347.925781 1441.582031 1335.367188 1453.707031 1339.480469 C 1454.355469 1339.699219 1455.003906 1339.480469 1455.65625 1339.699219 C 1514.765625 1348.574219 1572.578125 1340.996094 1630.171875 1327.355469 C 1650.523438 1322.378906 1665.464844 1311.117188 1674.558594 1292.5 C 1678.671875 1284.054688 1677.15625 1276.910156 1666.332031 1274.3125 C 1640.5625 1267.816406 1619.996094 1251.796875 1602.238281 1233.609375 C 1573.007812 1203.734375 1551.355469 1168.441406 1564.566406 1124.710938 C 1578.421875 1078.8125 1611.117188 1052.832031 1659.402344 1045.6875 C 1684.085938 1042.003906 1707.902344 1045.253906 1732.152344 1046.550781 C 1799.058594 1050.015625 1841.496094 1110.851562 1821.792969 1175.15625 C 1807.070312 1223.433594 1772.640625 1252.664062 1727.171875 1270.632812 C 1699.890625 1281.457031 1699.242188 1284.707031 1720.894531 1304.625 C 1721.976562 1305.488281 1723.058594 1306.355469 1724.140625 1307.222656 C 1792.34375 1363.511719 1867.480469 1361.132812 1944.558594 1330.820312 C 1975.957031 1318.480469 1976.605469 1313.5 1965.128906 1283.191406 C 2058.015625 1345.757812 2050.007812 1438.855469 2037.015625 1535.632812 C 2088.546875 1472.199219 2093.960938 1402.050781 2081.402344 1328.65625 C 2068.628906 1254.179688 2026.621094 1198.105469 1966.210938 1154.152344 C 2021.207031 1171.472656 2064.730469 1202.433594 2095.691406 1251.363281 C 2126.003906 1299.210938 2138.128906 1351.605469 2141.8125 1405.949219 C 2168.445312 1231.011719 2099.804688 1114.316406 1926.589844 1061.058594 C 1983.535156 1056.726562 2011.03125 1060.40625 2043.945312 1080.757812 C 2134.882812 1136.617188 2178.621094 1220.835938 2186.414062 1325.410156 C 2187.929688 1346.84375 2188.363281 1368.710938 2185.117188 1390.359375 C 2182.085938 1410.710938 2179.703125 1431.277344 2176.886719 1451.628906 C 2222.140625 1397.070312 2236.429688 1335.152344 2228.203125 1266.519531 C 2219.976562 1199.1875 2194.859375 1140.082031 2145.277344 1086.171875 C 2226.90625 1129.472656 2255.703125 1204.816406 2287.3125 1277.992188 C 2291.425781 1161.730469 2236.863281 1067.550781 2172.125 971.640625 C 2200.273438 989.828125 2218.675781 1010.394531 2236.648438 1031.179688 C 2255.050781 1052.398438 2272.808594 1073.832031 2292.941406 1097.863281 C 2285.363281 1043.519531 2232.316406 905.609375 2198.972656 848.667969 C 2172.558594 803.632812 2137.914062 766.179688 2096.339844 735.21875 C 2186.847656 768.34375 2243.792969 835.460938 2283.199219 920.761719 C 2275.621094 851.914062 2253.753906 789.34375 2212.832031 734.136719 C 2163.464844 667.886719 2100.023438 623.289062 2016.660156 609.863281 C 2091.363281 602.9375 2158.484375 619.390625 2215.429688 670.269531 C 2183.382812 614.195312 2137.046875 576.738281 2075.339844 559.203125 C 2012.765625 541.230469 1955.820312 561.152344 1895.410156 590.8125 C 1914.03125 566.78125 1932.867188 553.140625 1953.871094 542.097656 C 1974.222656 531.488281 1995.875 525.425781 2018.828125 521.53125 C 2041.777344 517.851562 2064.296875 521.3125 2092.878906 523.046875 C 1995.441406 470.4375 1852.972656 474.332031 1792.34375 594.277344 C 1803.605469 518.933594 1818.761719 448.785156 1857.085938 385.566406 C 1804.46875 422.804688 1770.042969 473.464844 1745.792969 532.140625 C 1740.597656 452.898438 1765.0625 379.070312 1784.984375 299.398438 C 1731.71875 358.285156 1704.652344 422.804688 1697.507812 502.261719 C 1681.488281 432.980469 1666.546875 369.546875 1631.035156 313.902344 C 1634.71875 339.882812 1641.214844 365.214844 1645.976562 390.761719 C 1650.742188 416.527344 1658.101562 441.855469 1658.320312 468.269531 C 1658.75 493.816406 1658.320312 519.367188 1658.320312 544.914062 C 1614.796875 433.847656 1575.824219 373.226562 1524.941406 341.617188 C 1566.730469 434.0625 1593.144531 528.457031 1586.433594 559.851562 C 1506.320312 457.445312 1381.820312 476.929688 1313.832031 524.128906 C 1399.359375 512.652344 1479.039062 540.148438 1503.9375 591.027344 C 1446.558594 559.203125 1387.449219 543.398438 1323.359375 562.234375 C 1262.300781 580.203125 1200.160156 635.84375 1190.414062 681.09375 C 1257.753906 622.636719 1344.796875 592.328125 1381.820312 614.195312 C 1254.074219 624.371094 1138.882812 771.375 1126.109375 899.113281 C 1147.761719 858.195312 1168.761719 822.46875 1198.644531 792.808594 C 1238.484375 752.972656 1277.023438 728.722656 1304.304688 727.859375 C 1260.570312 755.136719 1232.855469 794.542969 1207.085938 836.328125 C 1156.636719 918.816406 1131.523438 1012.777344 1089.734375 1100.027344 Z M 2354.21875 622.421875 C 2352.054688 615.492188 2354.652344 609.429688 2356.601562 603.152344 C 2382.582031 511.789062 2396.007812 418.691406 2390.378906 323.429688 C 2387.347656 274.285156 2385.179688 225.136719 2371.109375 177.507812 C 2359.632812 138.535156 2367.644531 136.585938 2323.472656 153.90625 C 2218.027344 195.042969 2135.53125 266.488281 2066.460938 354.390625 C 2045.675781 380.804688 2024.890625 407.433594 2011.683594 438.824219 C 2009.734375 443.371094 2004.753906 448.136719 2011.464844 452.898438 C 2024.023438 461.777344 2046.324219 458.09375 2055.203125 444.886719 C 2077.503906 411.546875 2103.488281 381.453125 2133.367188 354.824219 C 2160.863281 330.359375 2190.746094 310.222656 2231.449219 299.613281 C 2172.558594 345.511719 2126.65625 396.175781 2096.558594 460.476562 C 2138.996094 428.433594 2184.03125 406.351562 2241.195312 414.578125 C 2202.21875 435.578125 2168.445312 458.746094 2145.492188 496.417969 C 2194.859375 504.210938 2237.082031 522.398438 2277.355469 556.171875 C 2267.394531 554.4375 2262.195312 553.140625 2257 552.707031 C 2233.617188 550.976562 2210.882812 542.316406 2186.847656 550.757812 C 2172.339844 555.953125 2173.207031 561.800781 2183.601562 569.378906 C 2195.726562 578.253906 2206.117188 588.648438 2215.863281 599.90625 C 2249.640625 639.09375 2263.710938 685.855469 2273.023438 735.652344 C 2277.785156 760.765625 2276.703125 788.914062 2299.4375 807.964844 C 2327.804688 831.347656 2355.949219 854.945312 2378.035156 890.234375 C 2371.539062 832.644531 2354.867188 784.148438 2317.625 742.796875 C 2363.746094 749.292969 2402.070312 767.695312 2439.746094 797.140625 C 2426.753906 750.375 2397.089844 721.578125 2364.613281 696.25 C 2352.703125 686.9375 2354.867188 682.824219 2363.3125 673.515625 C 2386.695312 647.753906 2411.597656 623.503906 2441.695312 602.71875 C 2409.433594 596.007812 2407.484375 596.441406 2354.21875 622.421875 Z M 1165.082031 600.121094 C 1168.980469 595.574219 1170.496094 593.625 1172.226562 591.675781 C 1191.066406 570.894531 1214.667969 556.605469 1238.699219 542.53125 C 1255.371094 532.789062 1255.371094 529.109375 1238.917969 520.664062 C 1200.59375 500.960938 1160.753906 488.1875 1116.582031 494.46875 C 1168.980469 465.671875 1222.894531 462.640625 1280.273438 486.671875 C 1255.15625 439.691406 1213.582031 415.875 1167.898438 393.144531 C 1196.910156 390.113281 1220.945312 395.308594 1244.980469 402.453125 C 1269.011719 409.816406 1290.015625 423.019531 1312.101562 434.929688 C 1285.253906 379.503906 1244.113281 337.070312 1196.695312 299.613281 C 1231.988281 306.976562 1261.433594 325.160156 1287.632812 348.761719 C 1317.945312 376.257812 1343.929688 407.214844 1364.066406 442.722656 C 1372.726562 457.660156 1385.070312 455.28125 1395.246094 450.949219 C 1409.753906 444.671875 1395.246094 435.578125 1393.945312 427.785156 C 1393.296875 423.453125 1389.617188 419.558594 1387.449219 415.226562 C 1354.972656 348.976562 1306.039062 295.71875 1251.257812 248.304688 C 1199.726562 203.703125 1143.429688 165.382812 1076.09375 146.546875 C 1059.851562 142 1052.925781 144.597656 1048.160156 160.402344 C 1037.335938 197.207031 1029.757812 234.664062 1026.292969 272.984375 C 1020.230469 339.234375 1020.445312 405.269531 1029.757812 471.300781 C 1035.820312 514.167969 1044.265625 556.605469 1060.503906 599.6875 C 1033.222656 593.191406 1008.753906 583.882812 977.140625 589.078125 C 1018.28125 611.378906 1051.625 636.277344 1078.691406 671.132812 C 1034.085938 675.679688 993.8125 684.992188 965.234375 724.828125 C 1016.550781 710.972656 1056.390625 718.117188 1095.796875 733.269531 C 1068.515625 755.136719 1046.210938 779.820312 1027.589844 808.179688 C 1008.753906 837.191406 1000.09375 869.019531 996.628906 903.007812 C 1020.664062 861.007812 1050.757812 825.070312 1094.496094 803.417969 C 1109.871094 795.839844 1116.796875 784.796875 1122.210938 769.210938 C 1142.78125 709.671875 1147.542969 642.988281 1200.808594 596.65625 C 1187.382812 593.84375 1177.640625 596.441406 1165.082031 600.121094 Z M 2271.722656 1679.824219 C 2310.046875 1710.785156 2319.140625 1748.457031 2317.410156 1790.890625 C 2316.542969 1812.972656 2327.585938 1819.6875 2348.371094 1812.109375 C 2373.054688 1803.015625 2389.078125 1772.703125 2384.964844 1744.558594 C 2381.5 1721.394531 2371.539062 1700.390625 2361.582031 1676.359375 C 2380.203125 1681.988281 2389.726562 1693.898438 2398.824219 1706.238281 C 2415.710938 1728.972656 2416.578125 1754.953125 2414.84375 1781.582031 C 2414.628906 1785.910156 2412.246094 1791.539062 2417.660156 1794.355469 C 2422.640625 1796.953125 2426.535156 1793.054688 2430.433594 1790.457031 C 2444.941406 1781.363281 2450.355469 1767.507812 2451.652344 1751.269531 C 2456.632812 1680.257812 2421.773438 1629.164062 2350.972656 1604.265625 C 2301.820312 1586.945312 2250.9375 1583.914062 2199.40625 1588.027344 C 2156.75 1591.492188 2118.210938 1604.699219 2088.980469 1638.90625 C 2058.015625 1675.0625 2055.417969 1744.777344 2085.082031 1782.015625 C 2097.640625 1797.601562 2114.097656 1805.828125 2134.667969 1801.28125 C 2157.617188 1796.085938 2158.484375 1776.601562 2160.867188 1758.414062 C 2161.515625 1753.867188 2159.78125 1749.105469 2159.78125 1744.34375 C 2159.566406 1723.773438 2159.78125 1702.992188 2159.78125 1681.558594 C 2179.269531 1701.90625 2189.011719 1726.804688 2191.179688 1760.582031 C 2193.34375 1794.570312 2212.832031 1816.65625 2240.328125 1815.789062 C 2265.230469 1815.140625 2283.632812 1793.921875 2284.714844 1765.128906 C 2285.796875 1736.765625 2276.488281 1710.351562 2271.722656 1679.824219 Z M 1148.628906 1672.464844 C 1140.398438 1697.144531 1134.769531 1721.828125 1131.304688 1747.15625 C 1127.191406 1777.46875 1139.101562 1804.3125 1159.667969 1812.324219 C 1188.46875 1823.367188 1215.316406 1805.398438 1215.316406 1774.871094 C 1215.316406 1738.496094 1224.191406 1705.589844 1250.609375 1678.742188 C 1245.195312 1709.484375 1246.0625 1739.578125 1252.125 1769.671875 C 1257.753906 1797.820312 1282.4375 1808.859375 1307.554688 1794.355469 C 1318.164062 1788.292969 1326.824219 1780.066406 1333.535156 1769.242188 C 1370.777344 1709.050781 1340.898438 1626.347656 1270.960938 1599.933594 C 1219.214844 1580.449219 1165.730469 1579.367188 1111.601562 1589.757812 C 1066.132812 1598.417969 1024.34375 1614.007812 995.113281 1651.894531 C 968.480469 1686.320312 952.675781 1724.207031 972.59375 1767.941406 C 976.710938 1776.816406 981.257812 1788.507812 993.8125 1786.34375 C 1006.15625 1784.179688 1003.125 1771.1875 1003.558594 1762.960938 C 1005.289062 1739.578125 1011.570312 1717.929688 1024.128906 1698.226562 C 1031.488281 1686.96875 1039.285156 1675.277344 1055.738281 1672.464844 C 1052.273438 1682.421875 1048.8125 1690.433594 1046.863281 1698.875 C 1039.71875 1727.671875 1032.789062 1756.464844 1044.480469 1786.128906 C 1051.191406 1803.230469 1062.234375 1810.808594 1080.421875 1807.5625 C 1099.261719 1804.097656 1097.746094 1789.808594 1097.3125 1775.953125 C 1095.796875 1732.433594 1114.199219 1698.445312 1148.628906 1672.464844 Z M 1729.554688 1538.664062 C 1721.757812 1493.632812 1709.417969 1454.226562 1691.664062 1416.339844 C 1679.539062 1390.574219 1659.617188 1375.855469 1632.121094 1369.792969 C 1600.722656 1362.863281 1577.773438 1381.050781 1576.90625 1413.09375 C 1576.257812 1431.710938 1581.886719 1449.03125 1585.566406 1466.785156 C 1598.558594 1528.054688 1626.058594 1579.152344 1685.816406 1607.511719 C 1739.949219 1633.277344 1796.242188 1619.636719 1825.472656 1570.492188 C 1846.691406 1534.765625 1854.054688 1496.011719 1846.910156 1454.011719 C 1839.113281 1408.761719 1815.082031 1376.285156 1756.835938 1379.75 C 1723.925781 1381.699219 1719.8125 1386.460938 1725.441406 1418.9375 C 1731.71875 1457.257812 1742.328125 1495.582031 1729.554688 1538.664062 Z M 1233.070312 1105.007812 C 1198.644531 1161.949219 1176.558594 1223.003906 1169.847656 1289.46875 C 1162.917969 1357.882812 1188.898438 1442.320312 1230.90625 1475.445312 C 1212.066406 1392.089844 1203.625 1311.335938 1233.71875 1232.527344 C 1264.03125 1153.070312 1320.113281 1093.75 1388.101562 1044.601562 C 1338.515625 1014.292969 1328.339844 1005.199219 1315.78125 970.125 C 1310.152344 954.320312 1302.574219 955.1875 1290.664062 960.601562 C 1277.675781 966.445312 1266.414062 974.671875 1255.371094 983.980469 C 1233.070312 1002.816406 1213.800781 1024.683594 1193.878906 1045.902344 C 1128.492188 1115.183594 1093.414062 1221.703125 1106.839844 1310.035156 C 1141.699219 1237.292969 1163.785156 1156.96875 1233.070312 1105.007812 Z M 1468.429688 1586.511719 C 1432.917969 1498.394531 1431.621094 1491.898438 1442.015625 1454.878906 C 1453.488281 1481.507812 1468.210938 1504.457031 1484.019531 1526.972656 C 1517.363281 1574.171875 1552.65625 1618.988281 1605.703125 1646.050781 C 1633.203125 1660.121094 1661.132812 1661.421875 1692.527344 1650.164062 C 1688.414062 1647.132812 1687.332031 1645.617188 1685.601562 1644.96875 C 1613.714844 1618.769531 1573.007812 1565.292969 1553.957031 1493.199219 C 1550.492188 1479.777344 1549.625 1465.054688 1537.933594 1454.878906 C 1513.898438 1434.09375 1492.03125 1410.925781 1470.59375 1387.328125 C 1441.582031 1355.71875 1411.699219 1362.863281 1399.140625 1404 C 1378.574219 1470.464844 1408.453125 1548.839844 1468.429688 1586.511719 Z M 1960.148438 1562.261719 C 1999.773438 1513.117188 2015.796875 1442.105469 2000.640625 1389.492188 C 1991.976562 1359.398438 1982.019531 1356.367188 1959.5 1376.71875 C 1934.601562 1399.453125 1914.246094 1426.949219 1883.71875 1443.402344 C 1875.707031 1447.734375 1878.089844 1454.660156 1879.386719 1461.15625 C 1886.097656 1498.394531 1883.285156 1534.765625 1868.128906 1569.839844 C 1859.25 1590.410156 1846.257812 1608.378906 1828.722656 1628.945312 C 1893.027344 1595.386719 1921.824219 1557.933594 1958.632812 1461.804688 C 1966.429688 1496.664062 1964.046875 1528.054688 1960.148438 1562.261719 Z M 1610.25 1119.945312 C 1669.144531 1109.121094 1725.441406 1108.6875 1783.46875 1119.730469 C 1748.824219 1074.914062 1651.390625 1074.480469 1610.25 1119.945312 Z M 1365.148438 882.226562 C 1341.546875 912.96875 1339.382812 941.980469 1357.785156 970.777344 C 1375.109375 997.839844 1410.617188 1012.34375 1444.394531 1006.066406 C 1465.398438 1002.167969 1486.832031 981.601562 1490.296875 957.785156 C 1485.96875 964.0625 1484.453125 967.3125 1482.070312 969.476562 C 1439.632812 1011.476562 1380.953125 995.023438 1364.28125 937.867188 C 1358.4375 919.03125 1369.695312 902.144531 1365.148438 882.226562 Z M 1426.640625 885.472656 C 1425.339844 899.980469 1430.105469 909.503906 1446.128906 909.503906 C 1461.066406 909.503906 1474.492188 907.554688 1475.792969 887.855469 C 1476.875 870.75 1468.429688 861.875 1452.40625 862.089844 C 1438.332031 862.089844 1425.558594 866.855469 1426.640625 885.472656 Z M 1657.886719 1161.515625 C 1651.390625 1206.332031 1651.390625 1206.332031 1606.570312 1199.835938 C 1622.59375 1210.878906 1637.964844 1221.269531 1653.773438 1208.496094 C 1669.792969 1195.507812 1662.648438 1177.535156 1657.886719 1161.515625 Z M 1786.5 1198.539062 C 1770.261719 1200.269531 1755.753906 1207.628906 1746.660156 1196.804688 C 1739.082031 1187.710938 1746.226562 1173.207031 1740.8125 1161.515625 C 1735.832031 1176.238281 1727.605469 1194.207031 1738.648438 1205.683594 C 1750.339844 1218.238281 1767.878906 1212.394531 1786.5 1198.539062 Z M 1786.5 1198.539062 " fill-opacity="1" fill-rule="nonzero"/></g><path fill="#000000" d="M 1889.78125 992.640625 C 1922.90625 995.242188 1947.808594 1012.34375 1973.789062 1028.148438 C 1926.15625 1022.085938 1878.953125 1010.394531 1829.585938 1025.984375 C 1846.042969 967.960938 1860.332031 912.320312 1910.132812 874.429688 C 1959.5 836.757812 2017.09375 828.964844 2066.679688 856.460938 C 2071.007812 858.84375 2076.855469 860.359375 2078.585938 866.421875 C 2000.640625 848.882812 1930.703125 885.691406 1904.71875 935.703125 C 1998.039062 889.804688 2082.917969 924.011719 2107.816406 1006.28125 C 2049.574219 946.960938 1929.835938 938.515625 1889.78125 992.640625 Z M 1889.78125 992.640625 " fill-opacity="1" fill-rule="nonzero"/><path fill="#000000" d="M 1385.070312 718.546875 C 1489 693.21875 1596.609375 778.304688 1562.617188 911.671875 C 1541.179688 812.945312 1496.792969 738.035156 1385.070312 718.546875 Z M 1385.070312 718.546875 " fill-opacity="1" fill-rule="nonzero"/><path fill="#000000" d="M 2006.269531 734.136719 C 1990.246094 739.332031 1973.574219 743.445312 1957.984375 750.160156 C 1912.949219 770.078125 1881.550781 803.632812 1861.199219 848.234375 C 1847.992188 877.246094 1836.515625 907.339844 1818.328125 936.566406 C 1822.875 828.964844 1886.75 720.0625 2006.269531 734.136719 Z M 2006.269531 734.136719 " fill-opacity="1" fill-rule="nonzero"/><path fill="#000000" d="M 1655.503906 932.671875 C 1629.089844 891.101562 1615.664062 844.988281 1610.25 796.921875 C 1605.269531 752.324219 1594.878906 709.886719 1568.679688 672 C 1580.585938 675.246094 1581.019531 675.679688 1589.25 683.691406 C 1618.046875 711.621094 1633.417969 746.476562 1637.53125 785.449219 C 1642.511719 834.8125 1646.625 883.957031 1655.503906 932.671875 Z M 1655.503906 932.671875 " fill-opacity="1" fill-rule="nonzero"/><path fill="#000000" d="M 1834.566406 689.96875 C 1806.417969 735.003906 1799.273438 785.664062 1792.34375 836.757812 C 1787.582031 871.832031 1786.066406 907.988281 1765.0625 938.734375 C 1762.898438 941.980469 1760.949219 945.660156 1758.566406 948.910156 C 1757.484375 950.207031 1755.320312 950.855469 1752.722656 952.371094 C 1763.546875 903.875 1765.929688 855.59375 1768.527344 807.316406 C 1771.34375 757.734375 1793.859375 718.546875 1834.566406 689.96875 Z M 1834.566406 689.96875 " fill-opacity="1" fill-rule="nonzero"/><path fill="#000000" d="M 1697.292969 949.125 C 1690.582031 894.132812 1691.664062 839.359375 1705.953125 785.449219 C 1711.800781 840.441406 1716.78125 895.214844 1697.292969 949.125 Z M 1697.292969 949.125 " fill-opacity="1" fill-rule="nonzero"/></svg>