<svg xmlns="http://www.w3.org/2000/svg" xmlns:xlink="http://www.w3.org/1999/xlink" width="4535" zoomAndPan="magnify" viewBox="850 100 1650 1750" height="2646" preserveAspectRatio="xMidYMid meet" version="1.0"><defs><g/><clipPath id="faf4c9aec8"><path d="M 1.03125 0.53125 L 1537.792969 0.53125 L 1537.792969 1537.296875 L 1.03125 1537.296875 Z M 1.03125 0.53125 " clip-rule="nonzero"/></clipPath><clipPath id="c2310fe525"><path d="M 769.414062 0.53125 C 345.046875 0.53125 1.03125 344.550781 1.03125 768.914062 C 1.03125 1193.28125 345.046875 1537.296875 769.414062 1537.296875 C 1193.777344 1537.296875 1537.792969 1193.28125 1537.792969 768.914062 C 1537.792969 344.550781 1193.777344 0.53125 769.414062 0.53125 Z M 769.414062 0.53125 " clip-rule="nonzero"/></clipPath><clipPath id="4becd44948"><path d="M 0.03125 0.53125 L 1536.792969 0.53125 L 1536.792969 1537.296875 L 0.03125 1537.296875 Z M 0.03125 0.53125 " clip-rule="nonzero"/></clipPath><clipPath id="2574f173d4"><path d="M 768.414062 0.53125 C 344.046875 0.53125 0.03125 344.550781 0.03125 768.914062 C 0.03125 1193.28125 344.046875 1537.296875 768.414062 1537.296875 C 1192.777344 1537.296875 1536.792969 1193.28125 1536.792969 768.914062 C 1536.792969 344.550781 1192.777344 0.53125 768.414062 0.53125 Z M 768.414062 0.53125 " clip-rule="nonzero"/></clipPath><clipPath id="31888d1e3d"><rect x="0" width="1537" y="0" height="1538"/></clipPath><clipPath id="7fee421ae5"><path d="M 352.804688 539 L 541 539 L 541 841 L 352.804688 841 Z M 352.804688 539 " clip-rule="nonzero"/></clipPath><clipPath id="ae96dbdf31"><rect x="0" width="1280" y="0" height="414"/></clipPath><clipPath id="91cb157857"><rect x="0" width="1539" y="0" height="1538"/></clipPath></defs><g transform="matrix(1, 0, 0, 1, 931, 165)"><g clip-path="url(#91cb157857)"><g clip-path="url(#faf4c9aec8)"><g clip-path="url(#c2310fe525)"><g transform="matrix(1, 0, 0, 1, 1, 0)"><g clip-path="url(#31888d1e3d)"><g clip-path="url(#4becd44948)"><g clip-path="url(#2574f173d4)"><path fill="#785b49" d="M 0.03125 0.53125 L 1536.792969 0.53125 L 1536.792969 1537.296875 L 0.03125 1537.296875 Z M 0.03125 0.53125 " fill-opacity="1" fill-rule="nonzero"/></g></g></g></g></g></g><path fill="#f4dd81" d="M 704.382812 332.613281 C 758.8125 336.082031 782.988281 397.726562 787.320312 443.292969 C 792.140625 493.976562 784.328125 542.503906 763.878906 588.882812 C 749.0625 622.492188 721.046875 664.175781 682.828125 673.238281 C 671.0625 676.023438 659.671875 675.203125 648.667969 670.777344 C 607.75 654.308594 589.625 598.355469 584.777344 559.015625 C 576.679688 493.058594 590.667969 422.707031 632.179688 370.578125 C 648.804688 349.734375 676.839844 330.882812 704.382812 332.613281 Z M 704.382812 332.613281 " fill-opacity="1" fill-rule="nonzero"/><path fill="#f4dd81" d="M 869.335938 464.3125 C 891.378906 437.835938 927.570312 419.496094 961.710938 433.914062 C 993.390625 447.273438 1010.648438 479.738281 1016.339844 512.109375 C 1024.417969 558.070312 1016.519531 602.0625 999.714844 646.464844 C 983.519531 689.277344 940.433594 760.789062 882.574219 742.683594 C 847.878906 731.828125 828.554688 684.332031 822.308594 652.433594 C 809.246094 585.628906 825.34375 517.113281 869.335938 464.3125 Z M 869.335938 464.3125 " fill-opacity="1" fill-rule="nonzero"/><g clip-path="url(#7fee421ae5)"><path fill="#f4dd81" d="M 352.804688 678.480469 L 352.804688 649.578125 C 354.390625 626.59375 359.691406 605.644531 368.703125 586.734375 C 391.023438 539.90625 441.121094 522.667969 483.0625 557.359375 C 512.832031 581.964844 530.246094 616.796875 537.242188 654.523438 C 544.253906 692.308594 540.871094 730.070312 527.09375 767.800781 C 517.5 794.082031 501.1875 822.433594 476.660156 834.824219 C 429.144531 858.820312 389.503906 805.035156 374.277344 768.414062 C 362.378906 739.808594 355.21875 709.832031 352.804688 678.480469 Z M 352.804688 678.480469 " fill-opacity="1" fill-rule="nonzero"/></g><path fill="#f4dd81" d="M 1087.539062 954.328125 C 1049.300781 965.894531 1021.601562 937.207031 1008.027344 905.570312 C 981.097656 842.722656 987.695312 770.621094 1025.027344 713.527344 C 1045.378906 682.441406 1084.625 648.710938 1124.988281 657.8125 C 1183.578125 670.992188 1194.0625 747.292969 1186.398438 795.601562 C 1178.164062 847.648438 1144.769531 937.050781 1087.539062 954.328125 Z M 1087.539062 954.328125 " fill-opacity="1" fill-rule="nonzero"/><path fill="#f4dd81" d="M 745.003906 750.878906 C 837.046875 767.820312 869.097656 845.640625 912.832031 915.890625 C 929.25 942.265625 949.65625 964.835938 974.042969 983.605469 C 986.824219 993.441406 993.230469 998.371094 993.273438 998.398438 C 1021.3125 1022.445312 1040.199219 1052.136719 1049.929688 1087.464844 C 1067.347656 1150.683594 1034.152344 1209.648438 969.394531 1226.097656 C 919.296875 1238.804688 869.945312 1219.183594 818.390625 1199.621094 C 763.054688 1178.632812 706.691406 1175.738281 649.296875 1190.933594 C 615.15625 1199.976562 571.558594 1218.042969 530.5625 1222.59375 C 481.546875 1228.03125 436.6875 1212.445312 405.285156 1174.265625 C 383.496094 1147.769531 374.296875 1116.761719 378.472656 1082.558594 C 384.324219 1034.449219 413.324219 989.121094 451.601562 960.296875 C 455.464844 957.394531 463.515625 952.425781 475.753906 945.382812 C 521.183594 919.242188 551.148438 882.617188 580.859375 840.261719 C 613.265625 794.082031 657.375 752.375 717.5 750.070312 C 730.226562 749.585938 739.394531 749.855469 745.003906 750.878906 Z M 745.003906 750.878906 " fill-opacity="1" fill-rule="nonzero"/><g transform="matrix(1, 0, 0, 1, 130, 110)"><g clip-path="url(#ae96dbdf31)"><g fill="#f4dd81" fill-opacity="1"><g transform="translate(71.640145, 400.083002)"><g><path d="M -51.015625 -69.15625 C -45.828125 -76.664062 -40.1875 -81.132812 -34.09375 -82.5625 C -28 -83.988281 -21.492188 -82.3125 -14.578125 -77.53125 C -7.484375 -72.632812 -3.476562 -67.117188 -2.5625 -60.984375 C -1.644531 -54.859375 -3.429688 -48.539062 -7.921875 -42.03125 L -12.703125 -35.109375 L 12.3125 -17.828125 L 3.3125 -4.796875 L -63.5625 -50.984375 Z M -23.515625 -42.578125 L -21.5625 -45.40625 C -18.738281 -49.488281 -17.378906 -52.941406 -17.484375 -55.765625 C -17.585938 -58.585938 -19.707031 -61.425781 -23.84375 -64.28125 C -27.507812 -66.820312 -30.691406 -67.691406 -33.390625 -66.890625 C -36.085938 -66.085938 -38.847656 -63.644531 -41.671875 -59.5625 L -43.75 -56.546875 Z M -23.515625 -42.578125 "/></g></g></g><g fill="#f4dd81" fill-opacity="1"><g transform="translate(136.489579, 313.476953)"><g><path d="M -15.140625 -75.71875 C -17.691406 -76.070312 -20.078125 -75.945312 -22.296875 -75.34375 C -24.523438 -74.738281 -26.5625 -73.476562 -28.40625 -71.5625 C -30.289062 -69.59375 -31.257812 -67.28125 -31.3125 -64.625 C -31.363281 -61.976562 -30.484375 -59.785156 -28.671875 -58.046875 C -27.015625 -56.453125 -24.941406 -55.78125 -22.453125 -56.03125 C -19.960938 -56.289062 -16.90625 -57.273438 -13.28125 -58.984375 C -6.875 -61.796875 -1.859375 -63.320312 1.765625 -63.5625 C 5.390625 -63.8125 8.570312 -63.34375 11.3125 -62.15625 C 14.0625 -60.96875 16.648438 -59.207031 19.078125 -56.875 C 25.035156 -51.144531 28.171875 -44.734375 28.484375 -37.640625 C 28.804688 -30.554688 26.175781 -24.113281 20.59375 -18.3125 C 16.707031 -14.269531 12.285156 -11.769531 7.328125 -10.8125 C 2.378906 -9.863281 -2.78125 -10.019531 -8.15625 -11.28125 L -8.28125 -25.609375 C -4.957031 -24.097656 -1.546875 -23.554688 1.953125 -23.984375 C 5.460938 -24.410156 8.285156 -25.734375 10.421875 -27.953125 C 12.515625 -30.128906 13.457031 -32.691406 13.25 -35.640625 C 13.039062 -38.585938 11.695312 -41.253906 9.21875 -43.640625 C 7.039062 -45.734375 4.65625 -46.726562 2.0625 -46.625 C -0.53125 -46.519531 -3.617188 -45.644531 -7.203125 -44 C -15.054688 -40.28125 -21.257812 -38.539062 -25.8125 -38.78125 C -30.363281 -39.03125 -34.660156 -41.097656 -38.703125 -44.984375 C -41.804688 -47.972656 -44.007812 -51.484375 -45.3125 -55.515625 C -46.613281 -59.554688 -46.796875 -63.671875 -45.859375 -67.859375 C -44.929688 -72.054688 -42.921875 -75.757812 -39.828125 -78.96875 C -37.097656 -81.8125 -33.578125 -84.175781 -29.265625 -86.0625 C -24.953125 -87.957031 -21.160156 -88.835938 -17.890625 -88.703125 Z M -15.140625 -75.71875 "/></g></g></g><g fill="#f4dd81" fill-opacity="1"><g transform="translate(215.048021, 238.48831)"><g><path d="M -33.078125 -77.34375 L 17.0625 -13.375 L 4.59375 -3.59375 L -45.546875 -67.5625 Z M -40.953125 -96.640625 L -43.78125 -73.875 L -52.75 -72.890625 L -53.734375 -95.125 Z M -40.953125 -96.640625 "/></g></g></g><g fill="#f4dd81" fill-opacity="1"><g transform="translate(279.803437, 191.65657)"><g/></g></g><g fill="#f4dd81" fill-opacity="1"><g transform="translate(352.32656, 151.18168)"><g><path d="M 15.9375 -75.546875 C 13.738281 -76.878906 11.5 -77.703125 9.21875 -78.015625 C 6.9375 -78.335938 4.570312 -77.984375 2.125 -76.953125 C -0.382812 -75.890625 -2.1875 -74.15625 -3.28125 -71.75 C -4.375 -69.34375 -4.429688 -66.984375 -3.453125 -64.671875 C -2.554688 -62.546875 -0.914062 -61.109375 1.46875 -60.359375 C 3.851562 -59.609375 7.046875 -59.300781 11.046875 -59.4375 C 18.046875 -59.5 23.257812 -58.929688 26.6875 -57.734375 C 30.113281 -56.535156 32.851562 -54.847656 34.90625 -52.671875 C 36.957031 -50.492188 38.640625 -47.851562 39.953125 -44.75 C 43.171875 -37.132812 43.53125 -30.003906 41.03125 -23.359375 C 38.53125 -16.722656 33.570312 -11.84375 26.15625 -8.71875 C 21 -6.53125 15.945312 -5.972656 11 -7.046875 C 6.0625 -8.128906 1.378906 -10.304688 -3.046875 -13.578125 L 2.484375 -26.796875 C 4.953125 -24.085938 7.878906 -22.238281 11.265625 -21.25 C 14.648438 -20.269531 17.765625 -20.378906 20.609375 -21.578125 C 23.390625 -22.753906 25.265625 -24.738281 26.234375 -27.53125 C 27.203125 -30.320312 27.015625 -33.304688 25.671875 -36.484375 C 24.492188 -39.265625 22.691406 -41.117188 20.265625 -42.046875 C 17.847656 -42.972656 14.671875 -43.382812 10.734375 -43.28125 C 2.054688 -42.957031 -4.320312 -43.804688 -8.40625 -45.828125 C -12.5 -47.847656 -15.640625 -51.441406 -17.828125 -56.609375 C -19.503906 -60.578125 -20.144531 -64.671875 -19.75 -68.890625 C -19.351562 -73.117188 -17.894531 -76.972656 -15.375 -80.453125 C -12.863281 -83.929688 -9.554688 -86.539062 -5.453125 -88.28125 C -1.816406 -89.8125 2.347656 -90.59375 7.046875 -90.625 C 11.753906 -90.664062 15.578125 -89.984375 18.515625 -88.578125 Z M 15.9375 -75.546875 "/></g></g></g><g fill="#f4dd81" fill-opacity="1"><g transform="translate(452.886067, 112.712573)"><g><path d="M 23.125 -90.984375 L 71.953125 -16.625 L 55.453125 -12.8125 L 45.515625 -28.109375 L 17.984375 -21.75 L 15.328125 -3.546875 L -0.9375 0.21875 L 11.140625 -88.21875 Z M 19.5 -35.375 L 38.296875 -39.734375 L 21.765625 -66.203125 L 21.546875 -66.15625 Z M 19.5 -35.375 "/></g></g></g><g fill="#f4dd81" fill-opacity="1"><g transform="translate(574.826895, 90.048645)"><g><path d="M 16.421875 -82.5 L 20.75 -15.15625 L 43.125 -16.578125 L 44 -2.8125 L 5.8125 -0.375 L 0.609375 -81.484375 Z M 16.421875 -82.5 "/></g></g></g><g fill="#f4dd81" fill-opacity="1"><g transform="translate(669.169736, 86.630849)"><g><path d="M 6.28125 -40.3125 C 7.15625 -48.445312 9.640625 -55.546875 13.734375 -61.609375 C 17.828125 -67.671875 23.125 -72.195312 29.625 -75.1875 C 36.125 -78.175781 43.195312 -79.257812 50.84375 -78.4375 C 58.632812 -77.601562 65.394531 -74.976562 71.125 -70.5625 C 76.863281 -66.144531 81.03125 -60.53125 83.625 -53.71875 C 86.226562 -46.90625 87.101562 -39.566406 86.25 -31.703125 C 85.363281 -23.484375 82.867188 -16.304688 78.765625 -10.171875 C 74.671875 -4.035156 69.410156 0.507812 62.984375 3.46875 C 56.566406 6.425781 49.460938 7.488281 41.671875 6.65625 C 34.023438 5.832031 27.367188 3.328125 21.703125 -0.859375 C 16.046875 -5.046875 11.835938 -10.613281 9.078125 -17.5625 C 6.328125 -24.507812 5.394531 -32.09375 6.28125 -40.3125 Z M 49.078125 -62.90625 C 42.347656 -63.625 36.453125 -61.65625 31.390625 -57 C 26.335938 -52.34375 23.425781 -46.40625 22.65625 -39.1875 C 21.78125 -31.113281 23.1875 -24.238281 26.875 -18.5625 C 30.570312 -12.894531 36.0625 -9.664062 43.34375 -8.875 C 50.625 -8.09375 56.671875 -10.082031 61.484375 -14.84375 C 66.304688 -19.601562 69.15625 -26.019531 70.03125 -34.09375 C 70.8125 -41.382812 69.226562 -47.820312 65.28125 -53.40625 C 61.332031 -59 55.929688 -62.164062 49.078125 -62.90625 Z M 49.078125 -62.90625 "/></g></g></g><g fill="#f4dd81" fill-opacity="1"><g transform="translate(802.174925, 106.092214)"><g><path d="M 41.578125 -74.359375 L 65.28125 -7.3125 L 65.484375 -7.234375 L 81.953125 -59.34375 L 97.0625 -54.578125 L 72.09375 24.453125 L 61.1875 21.015625 L 37.484375 -46.03125 L 37.296875 -46.09375 L 20.671875 6.53125 L 5.5625 1.75 L 30.6875 -77.8125 Z M 41.578125 -74.359375 "/></g></g></g><g fill="#f4dd81" fill-opacity="1"><g transform="translate(927.017983, 151.981593)"><g/></g></g><g fill="#f4dd81" fill-opacity="1"><g transform="translate(999.916413, 191.954088)"><g><path d="M 85.671875 -39.46875 L 77.796875 -28.140625 L 56.28125 -43.078125 L 46.078125 -28.375 L 66.796875 -14 L 58.921875 -2.65625 L 38.203125 -17.03125 L 25.671875 1.03125 L 47.1875 15.96875 L 39.3125 27.296875 L 4.78125 3.328125 L 51.140625 -63.4375 Z M 85.671875 -39.46875 "/></g></g></g><g fill="#f4dd81" fill-opacity="1"><g transform="translate(1083.040742, 254.032696)"><g><path d="M 67.890625 -47.296875 L 43.59375 5.515625 L 43.75 5.65625 L 94.96875 -20.859375 L 107.140625 -8.953125 L 26.265625 28.671875 L 19.625 22.1875 L 55.71875 -59.203125 Z M 67.890625 -47.296875 "/></g></g></g><g fill="#f4dd81" fill-opacity="1"><g transform="translate(1165.41411, 340.671425)"><g><path d="M 92.953125 -13.078125 L 42.65625 60.28125 L 32.875 46.46875 L 43.265625 31.453125 L 26.953125 8.390625 L 9.09375 12.84375 L -0.5625 -0.796875 L 85.84375 -23.109375 Z M 40.109375 4.625 L 51.265625 20.375 L 69.515625 -4.9375 L 69.390625 -5.125 Z M 40.109375 4.625 "/></g></g></g></g></g></g></g></svg>