<svg xmlns="http://www.w3.org/2000/svg" xmlns:xlink="http://www.w3.org/1999/xlink" width="4535" zoomAndPan="magnify" viewBox="0 0 3401.25 1984.499941" height="2646" preserveAspectRatio="xMidYMid meet" version="1.0"><defs><g/><clipPath id="ab97e98346"><path d="M 0.0664062 0.484375 L 3071 0.484375 L 3071 791 L 0.0664062 791 Z M 0.0664062 0.484375 " clip-rule="nonzero"/></clipPath><clipPath id="7a54dd705a"><rect x="0" width="3071" y="0" height="791"/></clipPath><clipPath id="931b8ed11a"><path d="M 2350 347 L 3252.445312 347 L 3252.445312 1138.277344 L 2350 1138.277344 Z M 2350 347 " clip-rule="nonzero"/></clipPath><clipPath id="3d7ef938a4"><rect x="0" width="903" y="0" height="792"/></clipPath><clipPath id="6a25a28978"><rect x="0" width="3253" y="0" height="1139"/></clipPath></defs><g transform="matrix(1, 0, 0, 1, 107, 304)"><g clip-path="url(#6a25a28978)"><g clip-path="url(#ab97e98346)"><g transform="matrix(1, 0, 0, 1, 0.000000000000014211, 0)"><g clip-path="url(#7a54dd705a)"><g fill="#000000" fill-opacity="1"><g transform="translate(0.100264, 637.525486)"><g><path d="M 94.53125 1.375 C 52.664062 1.375 31.734375 -3.222656 31.734375 -12.421875 L 31.734375 -459.515625 C 31.734375 -475.148438 38.863281 -482.96875 53.125 -482.96875 L 174.5625 -482.96875 C 242.632812 -482.96875 291.734375 -468.9375 321.859375 -440.875 C 351.992188 -412.820312 367.0625 -372.117188 367.0625 -318.765625 C 367.0625 -274.597656 352.800781 -234.117188 324.28125 -197.328125 C 310.019531 -178.929688 289.085938 -164.210938 261.484375 -153.171875 C 233.890625 -142.128906 201.695312 -136.609375 164.90625 -136.609375 L 164.90625 -13.109375 C 164.90625 -7.585938 156.28125 -3.789062 139.03125 -1.71875 C 121.78125 0.34375 106.945312 1.375 94.53125 1.375 Z M 164.90625 -362.921875 L 164.90625 -253.90625 L 173.875 -253.90625 C 189.96875 -253.90625 203.535156 -258.960938 214.578125 -269.078125 C 225.617188 -279.203125 231.140625 -293.460938 231.140625 -311.859375 C 231.140625 -330.253906 227.34375 -343.363281 219.75 -351.1875 C 212.15625 -359.007812 198.703125 -362.921875 179.390625 -362.921875 Z M 164.90625 -362.921875 "/></g></g></g><g fill="#000000" fill-opacity="1"><g transform="translate(363.700864, 637.525486)"><g><path d="M 52.4375 -168.34375 C 61.175781 -161.445312 76.238281 -152.019531 97.625 -140.0625 C 119.019531 -128.101562 139.488281 -122.125 159.03125 -122.125 C 178.582031 -122.125 188.359375 -129.710938 188.359375 -144.890625 C 188.359375 -151.785156 185.597656 -157.878906 180.078125 -163.171875 C 174.554688 -168.460938 164.4375 -174.554688 149.71875 -181.453125 C 135 -188.359375 123.957031 -193.765625 116.59375 -197.671875 C 109.238281 -201.578125 99.46875 -208.015625 87.28125 -216.984375 C 75.09375 -225.953125 65.78125 -235.269531 59.34375 -244.9375 C 40.9375 -271.15625 31.734375 -304.5 31.734375 -344.96875 C 31.734375 -385.445312 46.796875 -419.597656 76.921875 -447.421875 C 107.054688 -475.253906 146.5 -489.171875 195.25 -489.171875 C 228.375 -489.171875 258.960938 -485.601562 287.015625 -478.46875 C 315.078125 -471.34375 329.566406 -462.035156 330.484375 -450.546875 C 330.484375 -449.160156 330.484375 -447.78125 330.484375 -446.40625 C 330.484375 -430.300781 325.421875 -409.941406 315.296875 -385.328125 C 305.179688 -360.722656 298.054688 -347.039062 293.921875 -344.28125 C 264.484375 -359.46875 238.148438 -367.0625 214.921875 -367.0625 C 191.691406 -367.0625 180.078125 -358.78125 180.078125 -342.21875 C 180.078125 -332.09375 188.585938 -323.125 205.609375 -315.3125 C 209.285156 -313.46875 214.570312 -310.9375 221.46875 -307.71875 C 228.375 -304.5 236.3125 -300.703125 245.28125 -296.328125 C 254.25 -291.960938 263.90625 -286.441406 274.25 -279.765625 C 284.601562 -273.097656 295.757812 -264.25 307.71875 -253.21875 C 332.09375 -230.21875 344.28125 -199.859375 344.28125 -162.140625 C 344.28125 -112.921875 330.710938 -72.671875 303.578125 -41.390625 C 276.441406 -10.117188 234.585938 5.976562 178.015625 6.90625 C 150.410156 6.90625 125.453125 4.601562 103.140625 0 C 80.835938 -4.601562 61.40625 -13.570312 44.84375 -26.90625 C 28.289062 -40.25 20.015625 -56.347656 20.015625 -75.203125 C 20.015625 -94.066406 23.460938 -112.8125 30.359375 -131.4375 C 37.253906 -150.0625 44.613281 -162.363281 52.4375 -168.34375 Z M 52.4375 -168.34375 "/></g></g></g><g fill="#000000" fill-opacity="1"><g transform="translate(700.393705, 637.525486)"><g><path d="M 80.71875 -118.671875 L 80.71875 -364.296875 L 31.734375 -364.296875 C 23.921875 -364.296875 18.398438 -374.1875 15.171875 -393.96875 C 13.335938 -403.625 12.421875 -413.507812 12.421875 -423.625 C 12.421875 -433.75 13.335938 -443.640625 15.171875 -453.296875 C 18.398438 -473.078125 23.921875 -482.96875 31.734375 -482.96875 L 263.5625 -482.96875 C 271.382812 -482.96875 276.90625 -473.078125 280.125 -453.296875 C 281.5 -443.640625 282.1875 -433.75 282.1875 -423.625 C 282.1875 -413.507812 281.5 -403.625 280.125 -393.96875 C 276.90625 -374.1875 271.382812 -364.296875 263.5625 -364.296875 L 217.328125 -364.296875 L 217.328125 -118.671875 L 265.625 -118.671875 C 273.445312 -118.671875 278.96875 -108.78125 282.1875 -89 C 283.570312 -79.34375 284.265625 -69.453125 284.265625 -59.328125 C 284.265625 -49.210938 283.570312 -39.328125 282.1875 -29.671875 C 278.96875 -9.890625 273.445312 0 265.625 0 L 33.125 0 C 25.300781 0 19.78125 -9.890625 16.5625 -29.671875 C 15.175781 -39.328125 14.484375 -49.210938 14.484375 -59.328125 C 14.484375 -69.453125 15.175781 -79.34375 16.5625 -89 C 19.78125 -108.78125 25.300781 -118.671875 33.125 -118.671875 Z M 101.421875 -502.96875 C 97.285156 -502.96875 91.992188 -507.570312 85.546875 -516.78125 C 77.273438 -529.65625 73.140625 -540.460938 73.140625 -549.203125 C 73.140625 -557.941406 74.519531 -563.691406 77.28125 -566.453125 C 152.25 -607.847656 190.425781 -628.546875 191.8125 -628.546875 C 196.40625 -628.546875 202.15625 -623.023438 209.0625 -611.984375 C 219.632812 -595.890625 224.921875 -580.710938 224.921875 -566.453125 C 224.921875 -561.390625 223.769531 -557.707031 221.46875 -555.40625 C 142.351562 -520.445312 102.335938 -502.96875 101.421875 -502.96875 Z M 101.421875 -502.96875 "/></g></g></g><g fill="#000000" fill-opacity="1"><g transform="translate(968.799214, 637.525486)"><g/></g></g><g fill="#000000" fill-opacity="1"><g transform="translate(1068.841118, 637.525486)"><g/></g></g><g fill="#000000" fill-opacity="1"><g transform="translate(1168.883902, 637.525486)"><g><path d="M 52.4375 -168.34375 C 61.175781 -161.445312 76.238281 -152.019531 97.625 -140.0625 C 119.019531 -128.101562 139.488281 -122.125 159.03125 -122.125 C 178.582031 -122.125 188.359375 -129.710938 188.359375 -144.890625 C 188.359375 -151.785156 185.597656 -157.878906 180.078125 -163.171875 C 174.554688 -168.460938 164.4375 -174.554688 149.71875 -181.453125 C 135 -188.359375 123.957031 -193.765625 116.59375 -197.671875 C 109.238281 -201.578125 99.46875 -208.015625 87.28125 -216.984375 C 75.09375 -225.953125 65.78125 -235.269531 59.34375 -244.9375 C 40.9375 -271.15625 31.734375 -304.5 31.734375 -344.96875 C 31.734375 -385.445312 46.796875 -419.597656 76.921875 -447.421875 C 107.054688 -475.253906 146.5 -489.171875 195.25 -489.171875 C 228.375 -489.171875 258.960938 -485.601562 287.015625 -478.46875 C 315.078125 -471.34375 329.566406 -462.035156 330.484375 -450.546875 C 330.484375 -449.160156 330.484375 -447.78125 330.484375 -446.40625 C 330.484375 -430.300781 325.421875 -409.941406 315.296875 -385.328125 C 305.179688 -360.722656 298.054688 -347.039062 293.921875 -344.28125 C 264.484375 -359.46875 238.148438 -367.0625 214.921875 -367.0625 C 191.691406 -367.0625 180.078125 -358.78125 180.078125 -342.21875 C 180.078125 -332.09375 188.585938 -323.125 205.609375 -315.3125 C 209.285156 -313.46875 214.570312 -310.9375 221.46875 -307.71875 C 228.375 -304.5 236.3125 -300.703125 245.28125 -296.328125 C 254.25 -291.960938 263.90625 -286.441406 274.25 -279.765625 C 284.601562 -273.097656 295.757812 -264.25 307.71875 -253.21875 C 332.09375 -230.21875 344.28125 -199.859375 344.28125 -162.140625 C 344.28125 -112.921875 330.710938 -72.671875 303.578125 -41.390625 C 276.441406 -10.117188 234.585938 5.976562 178.015625 6.90625 C 150.410156 6.90625 125.453125 4.601562 103.140625 0 C 80.835938 -4.601562 61.40625 -13.570312 44.84375 -26.90625 C 28.289062 -40.25 20.015625 -56.347656 20.015625 -75.203125 C 20.015625 -94.066406 23.460938 -112.8125 30.359375 -131.4375 C 37.253906 -150.0625 44.613281 -162.363281 52.4375 -168.34375 Z M 52.4375 -168.34375 "/></g></g></g><g fill="#000000" fill-opacity="1"><g transform="translate(1505.576743, 637.525486)"><g><path d="M 358.78125 1.375 C 318.757812 1.375 297.140625 -5.0625 293.921875 -17.9375 L 271.15625 -106.9375 L 161.453125 -106.9375 L 141.4375 -21.390625 C 138.675781 -7.128906 116.597656 0 75.203125 0 C 53.128906 0 36.800781 -1.265625 26.21875 -3.796875 C 15.632812 -6.328125 10.34375 -8.28125 10.34375 -9.65625 L 132.46875 -476.75 C 132.46875 -480.4375 163.972656 -482.28125 226.984375 -482.28125 C 290.003906 -482.28125 321.515625 -480.4375 321.515625 -476.75 L 440.875 -8.96875 C 440.875 -5.75 430.296875 -3.21875 409.140625 -1.375 C 387.984375 0.457031 371.195312 1.375 358.78125 1.375 Z M 178.703125 -194.5625 L 251.140625 -194.5625 L 220.09375 -337.390625 L 215.953125 -337.390625 Z M 178.703125 -194.5625 "/></g></g></g><g fill="#000000" fill-opacity="1"><g transform="translate(1927.822596, 637.525486)"><g><path d="M 27.59375 -40.703125 L 27.59375 -469.859375 C 27.59375 -479.515625 50.9375 -484.34375 97.625 -484.34375 C 144.3125 -484.34375 167.65625 -479.515625 167.65625 -469.859375 L 167.65625 -131.78125 L 273.90625 -131.78125 C 282.1875 -131.78125 287.9375 -120.972656 291.15625 -99.359375 C 292.539062 -88.773438 293.234375 -77.960938 293.234375 -66.921875 C 293.234375 -55.878906 292.539062 -44.613281 291.15625 -33.125 C 287.476562 -11.039062 281.5 0 273.21875 0 L 60.71875 0 C 50.59375 0 42.539062 -4.140625 36.5625 -12.421875 C 30.582031 -20.703125 27.59375 -30.128906 27.59375 -40.703125 Z M 27.59375 -40.703125 "/></g></g></g><g fill="#000000" fill-opacity="1"><g transform="translate(2198.280657, 637.525486)"><g><path d="M 239.75 6.90625 C 175.125 6.90625 122.457031 -14.25 81.75 -56.5625 C 41.050781 -98.882812 20.703125 -160.640625 20.703125 -241.828125 C 20.703125 -323.015625 41.285156 -384.535156 82.453125 -426.390625 C 123.617188 -468.242188 176.742188 -489.171875 241.828125 -489.171875 C 306.910156 -489.171875 359.460938 -468.585938 399.484375 -427.421875 C 439.503906 -386.253906 459.515625 -323.925781 459.515625 -240.4375 C 459.515625 -156.957031 439.046875 -94.863281 398.109375 -54.15625 C 357.171875 -13.445312 304.382812 6.90625 239.75 6.90625 Z M 240.09375 -356.703125 C 218.019531 -356.703125 199.507812 -346.582031 184.5625 -326.34375 C 169.613281 -306.101562 162.140625 -277.695312 162.140625 -241.125 C 162.140625 -204.5625 169.269531 -176.503906 183.53125 -156.953125 C 197.789062 -137.410156 216.53125 -127.640625 239.75 -127.640625 C 262.976562 -127.640625 281.835938 -137.53125 296.328125 -157.3125 C 310.816406 -177.09375 318.0625 -205.378906 318.0625 -242.171875 C 318.0625 -278.972656 310.585938 -307.257812 295.640625 -327.03125 C 280.691406 -346.8125 262.175781 -356.703125 240.09375 -356.703125 Z M 240.09375 -356.703125 "/></g></g></g><g fill="#000000" fill-opacity="1"><g transform="translate(2648.81431, 637.525486)"><g><path d="M 412.59375 -15.171875 C 412.59375 -5.515625 390.972656 -0.6875 347.734375 -0.6875 C 304.492188 -0.6875 281.035156 -4.140625 277.359375 -11.046875 L 162.140625 -226.296875 L 162.140625 -11.734375 C 162.140625 -3.453125 140.863281 0.6875 98.3125 0.6875 C 55.769531 0.6875 34.5 -3.453125 34.5 -11.734375 L 34.5 -473.3125 C 34.5 -480.207031 52.664062 -483.65625 89 -483.65625 C 103.257812 -483.65625 119.929688 -482.390625 139.015625 -479.859375 C 158.109375 -477.328125 169.726562 -472.613281 173.875 -465.71875 L 284.265625 -253.21875 L 284.265625 -469.859375 C 284.265625 -478.597656 305.648438 -482.96875 348.421875 -482.96875 C 391.203125 -482.96875 412.59375 -478.597656 412.59375 -469.859375 Z M 412.59375 -15.171875 "/></g></g></g></g></g></g><g clip-path="url(#931b8ed11a)"><g transform="matrix(1, 0, 0, 1, 2350, 347)"><g clip-path="url(#3d7ef938a4)"><g fill="#ff5d1b" fill-opacity="1"><g transform="translate(119.769831, 620.732973)"><g><path d="M 329.296875 -534.8125 C 331.523438 -535.46875 333.628906 -535.253906 335.609375 -534.171875 C 337.585938 -533.085938 338.90625 -531.429688 339.5625 -529.203125 C 340.207031 -526.972656 339.992188 -524.867188 338.921875 -522.890625 C 337.847656 -520.910156 336.195312 -519.59375 333.96875 -518.9375 C 312.582031 -512.363281 288.5625 -503.421875 261.90625 -492.109375 C 235.257812 -480.796875 207.992188 -468.25 180.109375 -454.46875 C 152.222656 -440.6875 125.644531 -426.304688 100.375 -411.328125 C 101.351562 -392.546875 102.210938 -371.835938 102.953125 -349.203125 C 103.691406 -326.566406 104.351562 -302.921875 104.9375 -278.265625 C 105.664062 -260.304688 106.296875 -241.644531 106.828125 -222.28125 C 107.367188 -202.914062 108.070312 -183.519531 108.9375 -164.09375 C 126.675781 -174.757812 144.625 -185.253906 162.78125 -195.578125 C 180.945312 -205.910156 198.085938 -215.332031 214.203125 -223.84375 C 230.328125 -232.363281 244.320312 -239.347656 256.1875 -244.796875 C 268.0625 -250.253906 276.546875 -253.578125 281.640625 -254.765625 C 283.953125 -255.140625 286.03125 -254.765625 287.875 -253.640625 C 289.71875 -252.515625 290.96875 -250.835938 291.625 -248.609375 C 291.988281 -246.304688 291.628906 -244.160156 290.546875 -242.171875 C 289.472656 -240.179688 287.820312 -238.859375 285.59375 -238.203125 C 279.851562 -237.128906 269.566406 -232.976562 254.734375 -225.75 C 239.910156 -218.519531 222.300781 -209.414062 201.90625 -198.4375 C 181.519531 -187.457031 160.101562 -175.34375 137.65625 -162.09375 C 127.894531 -156.207031 118.503906 -150.578125 109.484375 -145.203125 C 110.910156 -113.535156 112.628906 -82.9375 114.640625 -53.40625 C 116.648438 -23.875 119.15625 3.238281 122.15625 27.9375 C 125.164062 52.632812 128.910156 73.101562 133.390625 89.34375 C 135.347656 96.03125 137.953125 102.601562 141.203125 109.0625 C 144.460938 115.519531 148.609375 119.070312 153.640625 119.71875 C 159.597656 120.394531 166.394531 117.492188 174.03125 111.015625 C 181.664062 104.535156 189.726562 95.660156 198.21875 84.390625 C 206.71875 73.117188 215.207031 60.785156 223.6875 47.390625 C 232.164062 34.003906 240.253906 20.582031 247.953125 7.125 C 255.660156 -6.332031 262.507812 -18.332031 268.5 -28.875 C 270.070312 -31.757812 271.664062 -34.570312 273.28125 -37.3125 C 274.894531 -40.050781 276.351562 -42.820312 277.65625 -45.625 L 282.796875 -54.40625 C 285.828125 -59.53125 288.738281 -64.546875 291.53125 -69.453125 C 294.332031 -74.367188 296.859375 -78.671875 299.109375 -82.359375 C 302.140625 -87.492188 305.117188 -91.773438 308.046875 -95.203125 C 310.984375 -98.640625 314.429688 -99.269531 318.390625 -97.09375 C 322.921875 -95.082031 324.523438 -91.160156 323.203125 -85.328125 C 321.878906 -79.503906 318.78125 -69.96875 313.90625 -56.71875 C 313.082031 -54.363281 311.59375 -52.71875 309.4375 -51.78125 C 307.289062 -50.84375 305.175781 -50.832031 303.09375 -51.75 C 302.457031 -51.851562 301.78125 -52.101562 301.0625 -52.5 C 300.46875 -51.425781 299.875 -50.34375 299.28125 -49.25 C 298.695312 -48.164062 298.113281 -47.09375 297.53125 -46.03125 L 292.375 -37.25 C 291 -34.71875 289.523438 -32.007812 287.953125 -29.125 C 286.378906 -26.25 284.757812 -23.507812 283.09375 -20.90625 C 268.15625 5.570312 253.828125 29.984375 240.109375 52.328125 C 226.390625 74.671875 213.148438 93.238281 200.390625 108.03125 C 187.628906 122.832031 175.539062 131.910156 164.125 135.265625 C 159.664062 136.578125 155.515625 136.882812 151.671875 136.1875 C 136.023438 134.425781 124.632812 120.363281 117.5 94 C 112.945312 77.476562 109.148438 57.328125 106.109375 33.546875 C 103.066406 9.773438 100.503906 -16.484375 98.421875 -45.234375 C 96.347656 -73.984375 94.535156 -103.867188 92.984375 -134.890625 C 66.648438 -118.390625 46.414062 -104.8125 32.28125 -94.15625 C 18.15625 -83.507812 9.976562 -76.34375 7.75 -72.65625 C 6.75 -70.84375 5.132812 -69.613281 2.90625 -68.96875 C 0.675781 -68.3125 -1.515625 -68.578125 -3.671875 -69.765625 C -5.472656 -70.734375 -6.703125 -72.332031 -7.359375 -74.5625 C -8.015625 -76.789062 -7.75 -78.992188 -6.5625 -81.171875 C -4.195312 -85.492188 1.691406 -91.457031 11.109375 -99.0625 C 20.523438 -106.664062 32.316406 -115.195312 46.484375 -124.65625 C 60.660156 -134.113281 75.9375 -143.972656 92.3125 -154.234375 C 91.40625 -174.847656 90.679688 -195.597656 90.140625 -216.484375 C 89.609375 -237.367188 88.972656 -257.835938 88.234375 -277.890625 C 87.671875 -300.429688 87.035156 -322.191406 86.328125 -343.171875 C 85.617188 -364.160156 84.898438 -383.628906 84.171875 -401.578125 C 61.609375 -387.691406 41.304688 -374.085938 23.265625 -360.765625 C 5.234375 -347.453125 -9.046875 -335.007812 -19.578125 -323.4375 C -30.109375 -311.863281 -35.335938 -301.859375 -35.265625 -293.421875 C -35.503906 -292.128906 -34.769531 -289.613281 -33.0625 -285.875 C -31.363281 -282.132812 -25.335938 -278.609375 -14.984375 -275.296875 C -12.898438 -274.398438 -11.34375 -272.960938 -10.3125 -270.984375 C -9.28125 -269.015625 -9.035156 -266.894531 -9.578125 -264.625 C -10.597656 -261.90625 -12.5 -260.132812 -15.28125 -259.3125 C -16.957031 -258.820312 -18.613281 -258.796875 -20.25 -259.234375 C -33.613281 -263.484375 -42.238281 -268.894531 -46.125 -275.46875 C -50.019531 -282.039062 -52.007812 -288.035156 -52.09375 -293.453125 C -51.925781 -303.203125 -47.898438 -313.46875 -40.015625 -324.25 C -32.128906 -335.039062 -21.570312 -346.007812 -8.34375 -357.15625 C 4.875 -368.3125 19.421875 -379.316406 35.296875 -390.171875 C 51.171875 -401.035156 67.097656 -411.234375 83.078125 -420.765625 C 82.691406 -428.222656 82.328125 -434.628906 81.984375 -439.984375 C 81.597656 -442.296875 82.21875 -444.296875 83.84375 -445.984375 C 85.46875 -447.671875 87.296875 -448.660156 89.328125 -448.953125 C 91.722656 -449.035156 93.8125 -448.359375 95.59375 -446.921875 C 97.382812 -445.484375 98.328125 -443.566406 98.421875 -441.171875 C 98.671875 -438.222656 99 -434.535156 99.40625 -430.109375 C 124.46875 -444.734375 150.820312 -458.828125 178.46875 -472.390625 C 206.125 -485.953125 232.96875 -498.140625 259 -508.953125 C 285.03125 -519.773438 308.460938 -528.394531 329.296875 -534.8125 Z M 329.296875 -534.8125 "/></g></g></g><g fill="#ff5d1b" fill-opacity="1"><g transform="translate(474.260503, 516.672333)"><g><path d="M 183.09375 -152.71875 C 185.445312 -151.894531 187.019531 -150.390625 187.8125 -148.203125 C 188.613281 -146.023438 188.566406 -143.894531 187.671875 -141.8125 C 180.671875 -126.445312 171.140625 -114.039062 159.078125 -104.59375 C 147.023438 -95.144531 134.378906 -90.289062 121.140625 -90.03125 C 105.867188 -89.488281 92.28125 -95.039062 80.375 -106.6875 C 80.519531 -80.40625 76.925781 -53.46875 69.59375 -25.875 C 64.769531 -7.207031 59.015625 8.78125 52.328125 22.09375 C 45.640625 35.40625 38.769531 44.457031 31.71875 49.25 C 29.175781 50.914062 26.65625 52.117188 24.15625 52.859375 C 21.082031 53.753906 18.316406 53.878906 15.859375 53.234375 C 13.398438 52.597656 11.484375 52.019531 10.109375 51.5 C 8.597656 50.445312 6.503906 48.722656 3.828125 46.328125 C 1.160156 43.929688 -1.476562 39.5625 -4.09375 33.21875 C -6.71875 26.875 -9.128906 17.363281 -11.328125 4.6875 C -13.535156 -7.976562 -15.082031 -24.847656 -15.96875 -45.921875 C -16.863281 -67.003906 -16.6875 -93.472656 -15.4375 -125.328125 C -15.457031 -127.441406 -14.5625 -129.289062 -12.75 -130.875 C -10.945312 -132.46875 -8.988281 -133.273438 -6.875 -133.296875 C -4.40625 -133.109375 -2.394531 -132.179688 -0.84375 -130.515625 C 0.695312 -128.847656 1.375 -126.78125 1.1875 -124.3125 C 0.238281 -95.570312 0.101562 -71.539062 0.78125 -52.21875 C 1.46875 -32.894531 2.628906 -17.34375 4.265625 -5.5625 C 5.898438 6.207031 7.664062 15.066406 9.5625 21.015625 C 11.46875 26.960938 13.253906 30.976562 14.921875 33.0625 C 16.597656 35.144531 17.613281 36.285156 17.96875 36.484375 C 18.332031 36.679688 18.742188 36.789062 19.203125 36.8125 C 19.660156 36.832031 20.644531 36.316406 22.15625 35.265625 C 27.445312 31.597656 32.894531 23.867188 38.5 12.078125 C 44.113281 0.296875 49.101562 -13.875 53.46875 -30.4375 C 57.84375 -47.007812 60.863281 -64.320312 62.53125 -82.375 C 64.195312 -100.425781 63.851562 -117.578125 61.5 -133.828125 C 60.757812 -138.453125 62.71875 -141.601562 67.375 -143.28125 C 71.832031 -144.582031 75.128906 -143.128906 77.265625 -138.921875 C 88.597656 -116.828125 103.101562 -106.101562 120.78125 -106.75 C 130.707031 -106.9375 140.378906 -110.832031 149.796875 -118.4375 C 159.222656 -126.050781 166.644531 -136.097656 172.0625 -148.578125 C 173.25 -150.742188 174.863281 -152.203125 176.90625 -152.953125 C 178.957031 -153.703125 181.019531 -153.625 183.09375 -152.71875 Z M 183.09375 -152.71875 "/></g></g></g><g fill="#ff5d1b" fill-opacity="1"><g transform="translate(669.063143, 459.488071)"><g><path d="M 147.921875 -144.21875 C 150.109375 -143.957031 151.859375 -142.882812 153.171875 -141 C 154.484375 -139.113281 155.007812 -137.070312 154.75 -134.875 C 152.632812 -122.457031 150.035156 -109.894531 146.953125 -97.1875 C 143.878906 -84.476562 140.253906 -72.585938 136.078125 -61.515625 C 131.910156 -50.453125 127 -41.140625 121.34375 -33.578125 C 115.695312 -26.015625 109.25 -21.171875 102 -19.046875 C 100.613281 -18.640625 99.050781 -18.332031 97.3125 -18.125 C 77.5625 -16.257812 58.628906 -37.945312 40.515625 -83.1875 C 37.660156 -75.375 34.265625 -66.578125 30.328125 -56.796875 C 26.390625 -47.015625 22.078125 -37.203125 17.390625 -27.359375 C 16.609375 -25.910156 15.3125 -23.632812 13.5 -20.53125 C 11.6875 -17.425781 9.3125 -14.6875 6.375 -12.3125 C 3.445312 -9.945312 0.0625 -9.101562 -3.78125 -9.78125 C -11.207031 -10.332031 -16.539062 -16.640625 -19.78125 -28.703125 C -21.820312 -35.671875 -23.03125 -44.695312 -23.40625 -55.78125 C -23.789062 -66.875 -23.078125 -78.363281 -21.265625 -90.25 C -19.453125 -102.132812 -16.457031 -113.078125 -12.28125 -123.078125 C -8.113281 -133.078125 -2.394531 -140.660156 4.875 -145.828125 C 9.320312 -149.242188 15.347656 -151.390625 22.953125 -152.265625 C 30.566406 -153.140625 39.625 -150.117188 50.125 -143.203125 C 52.007812 -141.953125 53.207031 -140.1875 53.71875 -137.90625 C 54.238281 -135.632812 53.863281 -133.554688 52.59375 -131.671875 C 51.34375 -129.796875 49.582031 -128.597656 47.3125 -128.078125 C 45.039062 -127.566406 42.96875 -127.945312 41.09375 -129.21875 C 32.101562 -135.050781 25.226562 -137.039062 20.46875 -135.1875 C 15.71875 -133.332031 12.039062 -130.664062 9.4375 -127.1875 C 4.625 -120.925781 0.9375 -112.875 -1.625 -103.03125 C -4.195312 -93.195312 -5.804688 -83.191406 -6.453125 -73.015625 C -7.097656 -62.847656 -6.945312 -53.582031 -6 -45.21875 C -5.0625 -36.863281 -3.789062 -30.960938 -2.1875 -27.515625 C -1.507812 -28.328125 -0.804688 -29.289062 -0.078125 -30.40625 C 0.648438 -31.53125 1.375 -32.945312 2.09375 -34.65625 C 7.75 -46.3125 12.726562 -57.691406 17.03125 -68.796875 C 21.332031 -79.898438 24.972656 -89.671875 27.953125 -98.109375 C 28.773438 -100.472656 29.546875 -102.742188 30.265625 -104.921875 C 30.992188 -107.097656 31.710938 -109.046875 32.421875 -110.765625 C 33.828125 -114.210938 36.507812 -115.90625 40.46875 -115.84375 C 44.320312 -116.082031 46.960938 -114.289062 48.390625 -110.46875 C 54.546875 -92.601562 60.285156 -78.46875 65.609375 -68.0625 C 70.929688 -57.664062 75.640625 -50.117188 79.734375 -45.421875 C 83.835938 -40.734375 87.289062 -37.738281 90.09375 -36.4375 C 92.894531 -35.132812 94.859375 -34.648438 95.984375 -34.984375 C 101.597656 -35.429688 108.5 -43.363281 116.6875 -58.78125 C 124.875 -74.195312 132.023438 -100.351562 138.140625 -137.25 C 138.609375 -139.8125 139.785156 -141.75 141.671875 -143.0625 C 143.554688 -144.382812 145.640625 -144.769531 147.921875 -144.21875 Z M 147.921875 -144.21875 "/></g></g></g></g></g></g></g></g></svg>